PathFileType	4	(X/Y/Z)	/Users/itak/Documents/Research/Walk-IL/dataset/trc/00102_00007.trc
DataRate	CameraRate	NumFrames	NumMarkers	Units	OrigDataRate	OrigDataStartFrame	OrigNumFrames
100.000000	100.000000	4	53	mm	100.000000	211	565
Frame#	Time	RPSI			LPSI			L3			STRN			T10			C7			CLAV			RBAK			LBAK			LSHO			LUPA			LAEL			LAOL			LWTS			LWPS			LFRA			LIFD			LHPS			LHTS			RSHO			RUPA			RAEL			RAOL			RWTS			RWPS			RFRA			RIFD			RHTS			RHPS			RBHD			LFHD			RFHD			LBHD			LHIP			RHIP			RASI			LASI			LKNE			LTHI			LANK			LTIP			LTOE			LMT1			LMT5			LHEE			RKNE			RTHI			RANK			RTIP			RTOE			RMT1			RMT5			RHEE			
		X1	Y1	Z1	X2	Y2	Z2	X3	Y3	Z3	X4	Y4	Z4	X5	Y5	Z5	X6	Y6	Z6	X7	Y7	Z7	X8	Y8	Z8	X9	Y9	Z9	X10	Y10	Z10	X11	Y11	Z11	X12	Y12	Z12	X13	Y13	Z13	X14	Y14	Z14	X15	Y15	Z15	X16	Y16	Z16	X17	Y17	Z17	X18	Y18	Z18	X19	Y19	Z19	X20	Y20	Z20	X21	Y21	Z21	X22	Y22	Z22	X23	Y23	Z23	X24	Y24	Z24	X25	Y25	Z25	X26	Y26	Z26	X27	Y27	Z27	X28	Y28	Z28	X29	Y29	Z29	X30	Y30	Z30	X31	Y31	Z31	X32	Y32	Z32	X33	Y33	Z33	X34	Y34	Z34	X35	Y35	Z35	X36	Y36	Z36	X37	Y37	Z37	X38	Y38	Z38	X39	Y39	Z39	X40	Y40	Z40	X41	Y41	Z41	X42	Y42	Z42	X43	Y43	Z43	X44	Y44	Z44	X45	Y45	Z45	X46	Y46	Z46	X47	Y47	Z47	X48	Y48	Z48	X49	Y49	Z49	X50	Y50	Z50	X51	Y51	Z51	X52	Y52	Z52	X53	Y53	Z53	

212	2.11	-1415.328369140625	1116.855712890625	-272.7621765136719	-1404.090087890625	1129.576538085938	-407.5914306640625	-1413.91650390625	1163.839721679688	-342.0545349121094	-1176.708618164062	1351.209594726562	-324.6763916015625	-1436.33642578125	1317.843627929688	-342.9721374511719	-1374.806640625	1606.473999023438	-360.1791381835938	-1202.2119140625	1488.29443359375	-334.9004821777344	-1450.718017578125	1429.699829101562	-272.6957092285156	-1375.843017578125	1585.172241210938	-461.8411560058594	-1285.764526367188	1563.682250976562	-523.1596069335938	-1311.741943359375	1433.47021484375	-593.2622680664062	-1316.625122070312	1214.190307617188	-616.4240112304688	-1384.930297851562	1207.111450195312	-561.8992309570312	-1241.700317382812	948.68505859375	-575.6018676757812	-1324.895385742188	930.7180786132812	-603.6283569335938	-1311.012573242188	1097.446899414062	-621.5374755859375	-1248.279541015625	755.4862670898438	-553.4089965820312	-1302.168334960938	853.2288818359375	-604.9061889648438	-1234.558349609375	857.8651733398438	-587.320068359375	-1335.434814453125	1589.4482421875	-174.8845062255859	-1362.794067382812	1519.8916015625	-110.9545135498047	-1399.343627929688	1228.343017578125	-81.12901306152344	-1399.148803710938	1224.465209960938	-178.3285064697266	-1268.047729492188	979.4411010742188	-74.68750762939453	-1346.250854492188	965.9444580078125	-50.76225280761719	-1381.981567382812	1154.397705078125	-61.72996139526367	-1250.596435546875	782.4680786132812	-82.94040679931641	-1243.83544921875	870.019775390625	-62.62225723266602	-1314.623413085938	865.4632568359375	-39.44257736206055	-1342.086181640625	1767.029663085938	-276.9190673828125	-1187.422607421875	1840.775146484375	-416.1786193847656	-1184.341186523438	1848.829467773438	-286.4615783691406	-1352.859375	1762.01171875	-412.2761535644531	-1305.98046875	1045.172729492188	-514.4368896484375	-1298.352905273438	1011.299072265625	-153.0624084472656	-1212.353759765625	1088.5947265625	-195.6684722900391	-1199.1357421875	1101.028442382812	-460.0953674316406	-1239.91943359375	539.3194580078125	-465.8793029785156	-1276.1357421875	682.451904296875	-500.9657592773438	-1300.521362304688	30.95833587646484	-423.7346801757812	-1315.208984375	283.7118225097656	-476.1480407714844	-1075.145629882812	41.614501953125	-360.3600158691406	-1152.937255859375	47.59233474731445	-327.1287841796875	-1176.18310546875	30.81398582458496	-444.9900512695312	-1371.27392578125	35.55737686157227	-363.9320068359375	-1225.028686523438	519.4449462890625	-191.0697326660156	-1249.2890625	801.1675415039062	-168.2265930175781	-1615.449584960938	157.1178894042969	-169.8470916748047	-1316.089965820312	412.0399780273438	-173.4553527832031	-1420.529296875	56.3367919921875	-224.2816314697266	-1475.511962890625	69.51044464111328	-269.6700744628906	-1507.669311523438	81.93318939208984	-152.7174682617188	-1658.91162109375	196.4957275390625	-217.5663604736328	
213	2.12	-1407.531372070312	1117.17919921875	-273.3976745605469	-1396.561157226562	1129.64794921875	-408.2628479003906	-1406.567993164062	1164.002319335938	-343.0317687988281	-1169.236206054688	1351.996704101562	-325.5790100097656	-1428.786499023438	1318.3779296875	-344.339599609375	-1367.160034179688	1606.98095703125	-361.5008544921875	-1194.678100585938	1489.104858398438	-335.5696105957031	-1443.224609375	1430.16064453125	-274.3050537109375	-1367.87060546875	1585.71630859375	-463.2210388183594	-1277.4638671875	1564.338012695312	-524.0185546875	-1301.694702148438	1434.022338867188	-594.3641357421875	-1302.664306640625	1214.626586914062	-618.0264892578125	-1371.581420898438	1206.51513671875	-564.42236328125	-1226.06201171875	949.4896240234375	-577.368896484375	-1308.776977539062	931.1068115234375	-606.6060791015625	-1295.846069335938	1098.001220703125	-623.4880981445312	-1231.642456054688	756.1148681640625	-556.322265625	-1285.45458984375	853.8162841796875	-608.0391235351562	-1218.19677734375	858.7474365234375	-589.5061645507812	-1328.4970703125	1589.965576171875	-176.0277862548828	-1356.177856445312	1520.376708984375	-112.3037567138672	-1393.572387695312	1228.859985351562	-83.41268157958984	-1392.5	1225.189453125	-180.644287109375	-1262.912963867188	979.60400390625	-76.26554107666016	-1341.470336914062	966.248779296875	-53.19955444335938	-1376.587890625	1154.8369140625	-64.02465057373047	-1246.113037109375	782.4436645507812	-84.65265655517578	-1239.095947265625	870.1168212890625	-64.09760284423828	-1310.19580078125	865.668701171875	-41.7915153503418	-1334.359252929688	1767.467529296875	-277.7686767578125	-1179.548461914062	1841.491577148438	-416.6864929199219	-1176.662353515625	1849.404418945312	-286.9605712890625	-1344.906372070312	1762.590698242188	-413.1636047363281	-1298.904174804688	1044.962890625	-515.1212158203125	-1289.25830078125	1012.5595703125	-153.6573486328125	-1204.161987304688	1089.778076171875	-197.0670166015625	-1191.93408203125	1101.308349609375	-461.4763488769531	-1236.355712890625	538.9992065429688	-466.4837036132812	-1271.361450195312	682.418701171875	-501.2451477050781	-1300.556274414062	30.95927810668945	-423.7113037109375	-1313.83349609375	283.9341735839844	-476.2045288085938	-1075.130981445312	41.60964965820312	-360.5442810058594	-1153.11669921875	47.64241409301758	-327.3732604980469	-1176.250244140625	30.67603302001953	-445.2077941894531	-1371.335083007812	35.80539321899414	-363.8583984375	-1207.825805664062	522.114501953125	-192.0351715087891	-1237.453125	803.168212890625	-168.7298431396484	-1591.414428710938	153.2237091064453	-170.5984802246094	-1297.171142578125	413.4629516601562	-174.3584136962891	-1393.190307617188	56.70286178588867	-222.4063720703125	-1448.182983398438	68.13240051269531	-268.1336059570312	-1481.548583984375	81.71208190917969	-151.6286163330078	-1635.86376953125	190.7253723144531	-219.1242828369141	
214	2.13	-1399.810668945312	1117.479614257812	-274.007080078125	-1389.084838867188	1129.686157226562	-408.8994140625	-1399.32177734375	1164.139526367188	-343.9912414550781	-1161.802368164062	1352.713500976562	-326.5256652832031	-1421.241088867188	1318.862670898438	-345.6468505859375	-1359.53857421875	1607.448120117188	-362.7377624511719	-1187.159057617188	1489.85205078125	-336.2518310546875	-1435.734497070312	1430.5849609375	-275.8215637207031	-1359.954956054688	1586.240844726562	-464.5213317871094	-1269.24072265625	1565.0234375	-524.8350830078125	-1291.733032226562	1434.621215820312	-595.4144287109375	-1288.757446289062	1215.166748046875	-619.5065307617188	-1358.201904296875	1206	-566.751953125	-1210.32763671875	950.4407348632812	-579.068115234375	-1292.581420898438	931.6190185546875	-609.3919677734375	-1280.699462890625	1098.671508789062	-625.3047485351562	-1214.821044921875	756.9015502929688	-559.0859375	-1268.663330078125	854.5403442382812	-610.9766235351562	-1201.7333984375	859.7780151367188	-591.5945434570312	-1321.481689453125	1590.411499023438	-177.1152038574219	-1349.44384765625	1520.8017578125	-113.5788726806641	-1387.741333007812	1229.343139648438	-85.51837921142578	-1385.978271484375	1225.880004882812	-182.7797393798828	-1257.817138671875	979.67626953125	-77.94029235839844	-1336.656494140625	966.5	-55.54891967773438	-1371.125366210938	1155.231811523438	-66.174072265625	-1241.763427734375	782.3497924804688	-86.59382629394531	-1234.397827148438	870.105712890625	-65.78411865234375	-1305.764770507812	865.7971801757812	-44.15874862670898	-1326.631958007812	1767.88037109375	-278.5822143554688	-1171.669311523438	1842.149536132812	-417.16455078125	-1168.968017578125	1849.91748046875	-287.4193420410156	-1336.955810546875	1763.141967773438	-414.0066833496094	-1291.8115234375	1044.734619140625	-515.7993774414062	-1280.22509765625	1013.82470703125	-154.2188110351562	-1196.05126953125	1090.928344726562	-198.4542846679688	-1184.808227539062	1101.489868164062	-462.85107421875	-1232.738891601562	538.6887817382812	-466.9283752441406	-1266.52880859375	682.3641967773438	-501.4192504882812	-1300.590454101562	30.99019813537598	-423.6646728515625	-1312.349609375	284.1609497070312	-476.195556640625	-1075.102783203125	41.5843620300293	-360.7035217285156	-1153.268920898438	47.6811408996582	-327.5812072753906	-1176.312744140625	30.57000160217285	-445.3893737792969	-1371.382202148438	36.06734085083008	-363.7521057128906	-1190.945434570312	524.9344482421875	-192.9635162353516	-1225.744018554688	805.2534790039062	-169.0863494873047	-1566.619995117188	148.5695648193359	-171.4301147460938	-1278.347534179688	414.8853454589844	-175.2266387939453	-1365.123413085938	57.0328254699707	-220.5687408447266	-1420.039672851562	66.47364044189453	-266.6985778808594	-1454.713134765625	80.96147918701172	-150.6747436523438	-1612.016723632812	184.1567840576172	-220.7333526611328	
215	2.14	-1392.156982421875	1117.745361328125	-274.5891418457031	-1381.643920898438	1129.690063476562	-409.5007019042969	-1392.138549804688	1164.253173828125	-344.9199523925781	-1154.393188476562	1353.3427734375	-327.5046081542969	-1413.70849609375	1319.291748046875	-346.9065551757812	-1351.93212890625	1607.866333007812	-363.898681640625	-1179.645751953125	1490.516357421875	-336.9425659179688	-1428.24609375	1430.960083007812	-277.2629089355469	-1352.078247070312	1586.734008789062	-465.7497253417969	-1261.078002929688	1565.71875	-525.614501953125	-1281.862182617188	1435.249389648438	-596.4199829101562	-1274.971557617188	1215.795532226562	-620.8779907226562	-1344.8505859375	1205.558837890625	-568.8912963867188	-1194.510864257812	951.5518188476562	-580.6945190429688	-1276.319580078125	932.2413940429688	-611.95654296875	-1265.625244140625	1099.442260742188	-626.9906005859375	-1197.76318359375	757.86572265625	-561.6708984375	-1251.788208007812	855.392578125	-613.6837158203125	-1185.151123046875	860.9794311523438	-593.5717163085938	-1314.389404296875	1590.767944335938	-178.1492004394531	-1342.595947265625	1521.145751953125	-114.784065246582	-1381.837158203125	1229.77197265625	-87.43833160400391	-1379.58251953125	1226.513916015625	-184.7282257080078	-1252.739501953125	979.6439208984375	-79.72046661376953	-1331.782470703125	966.683837890625	-57.7912712097168	-1365.573608398438	1155.56494140625	-68.16884613037109	-1237.515991210938	782.177978515625	-88.76457214355469	-1229.72021484375	869.9725341796875	-67.69268035888672	-1301.298217773438	865.8369750976562	-46.52398681640625	-1318.89990234375	1768.254272460938	-279.3576049804688	-1163.783813476562	1842.735473632812	-417.6158752441406	-1161.259521484375	1850.359985351562	-287.8410034179688	-1329.008422851562	1763.647216796875	-414.8038330078125	-1284.69921875	1044.484252929688	-516.4598999023438	-1271.290771484375	1015.055236816406	-154.7557067871094	-1188.020263671875	1092.020629882812	-199.8073883056641	-1177.715087890625	1101.578125	-464.19873046875	-1229.084106445312	538.3760375976562	-467.2495422363281	-1261.647338867188	682.2838134765625	-501.5125122070312	-1300.625	31.04998016357422	-423.5968322753906	-1310.77978515625	284.3897705078125	-476.1353149414062	-1075.057006835938	41.54275131225586	-360.8394165039062	-1153.3818359375	47.71542739868164	-327.7549133300781	-1176.367309570312	30.49163627624512	-445.53955078125	-1371.406127929688	36.32997131347656	-363.6136779785156	-1174.3935546875	527.8585815429688	-193.8625793457031	-1214.162109375	807.385986328125	-169.2970581054688	-1541.083862304688	143.2308502197266	-172.3131561279297	-1259.640380859375	416.2792358398438	-176.0652008056641	-1336.378540039062	57.38007736206055	-218.8306274414062	-1391.14111328125	64.65252685546875	-265.39404296875	-1427.192016601562	79.75739288330078	-149.8641204833984	-1587.391357421875	176.8638305664062	-222.3456878662109	
